<mxfile host="65bd71144e">
    <diagram id="tartas" name="Pasteleria Tartas">
        <mxGraphModel dx="1333" dy="799" grid="1" gridSize="10" guides="1" tooltips="1" connect="1" arrows="1" fold="1" page="1" pageScale="1" pageWidth="850" pageHeight="1100" math="0" shadow="0">
            <root>
                <mxCell id="0"/>
                <mxCell id="1" parent="0"/>
                <mxCell id="2" value="Inicio" style="ellipse;whiteSpace=wrap;html=1;aspect=fixed;" parent="1" vertex="1">
                    <mxGeometry x="40" y="30" width="80" height="80" as="geometry"/>
                </mxCell>
                <mxCell id="3" value="tipo:STRING, choco:STRING, nata:STRING, nombre:BOOLEAN, precio:INT" style="rounded=1;whiteSpace=wrap;html=1;" parent="1" vertex="1">
                    <mxGeometry x="180" y="40" width="320" height="60" as="geometry"/>
                </mxCell>
                <mxCell id="54" style="edgeStyle=none;html=1;exitX=1;exitY=0.5;exitDx=0;exitDy=0;entryX=0.219;entryY=0.25;entryDx=0;entryDy=0;entryPerimeter=0;" parent="1" source="4" target="6" edge="1">
                    <mxGeometry relative="1" as="geometry"/>
                </mxCell>
                <mxCell id="4" value="ESCRIBIR: &quot;Tipo de tarta (M/F/C)&quot;&lt;br&gt;LEER: tipo" style="shape=parallelogram;perimeter=parallelogramPerimeter;whiteSpace=wrap;html=1;" parent="1" vertex="1">
                    <mxGeometry x="110" y="140" width="320" height="60" as="geometry"/>
                </mxCell>
                <mxCell id="6" value="tipo = M" style="rhombus;whiteSpace=wrap;html=1;" parent="1" vertex="1">
                    <mxGeometry x="380" y="190" width="320" height="80" as="geometry"/>
                </mxCell>
                <mxCell id="7" value="precio = 12" style="rounded=1;whiteSpace=wrap;html=1;" parent="1" vertex="1">
                    <mxGeometry x="130" y="240" width="90" height="60" as="geometry"/>
                </mxCell>
                <mxCell id="8" value="tipo = F" style="rhombus;whiteSpace=wrap;html=1;" parent="1" vertex="1">
                    <mxGeometry x="490" y="320" width="320" height="80" as="geometry"/>
                </mxCell>
                <mxCell id="9" value="precio = 16" style="rounded=1;whiteSpace=wrap;html=1;" parent="1" vertex="1">
                    <mxGeometry x="290" y="330" width="100" height="60" as="geometry"/>
                </mxCell>
                <mxCell id="10" value="tipo = C" style="rhombus;whiteSpace=wrap;html=1;" parent="1" vertex="1">
                    <mxGeometry x="490" y="460" width="320" height="80" as="geometry"/>
                </mxCell>
                <mxCell id="11" value="ESCRIBIR: &lt;br&gt;&quot;Chocolate negro (N) o blanco (B)&quot;&lt;br&gt;LEER: choco" style="shape=parallelogram;perimeter=parallelogramPerimeter;whiteSpace=wrap;html=1;" parent="1" vertex="1">
                    <mxGeometry x="525" y="610" width="250" height="60" as="geometry"/>
                </mxCell>
                <mxCell id="13" value="choco = N" style="rhombus;whiteSpace=wrap;html=1;" parent="1" vertex="1">
                    <mxGeometry x="275" y="560" width="150" height="80" as="geometry"/>
                </mxCell>
                <mxCell id="14" value="precio = 14" style="rounded=1;whiteSpace=wrap;html=1;" parent="1" vertex="1">
                    <mxGeometry x="40" y="550" width="100" height="60" as="geometry"/>
                </mxCell>
                <mxCell id="15" value="precio = 15" style="rounded=1;whiteSpace=wrap;html=1;" parent="1" vertex="1">
                    <mxGeometry x="325" y="460" width="110" height="60" as="geometry"/>
                </mxCell>
                <mxCell id="16" value="ESCRIBIR: &quot;¿Añadir nata? (S/N)&quot;&lt;br&gt;LEER: nata" style="shape=parallelogram;perimeter=parallelogramPerimeter;whiteSpace=wrap;html=1;" parent="1" vertex="1">
                    <mxGeometry x="10" y="420" width="320" height="60" as="geometry"/>
                </mxCell>
                <mxCell id="18" value="nata = S" style="rhombus;whiteSpace=wrap;html=1;" parent="1" vertex="1">
                    <mxGeometry x="130" y="670" width="160" height="80" as="geometry"/>
                </mxCell>
                <mxCell id="19" value="precio = precio + 2.50" style="rounded=1;whiteSpace=wrap;html=1;" parent="1" vertex="1">
                    <mxGeometry x="70" y="810" width="110" height="60" as="geometry"/>
                </mxCell>
                <mxCell id="56" value="" style="edgeStyle=none;html=1;" parent="1" source="20" target="22" edge="1">
                    <mxGeometry relative="1" as="geometry"/>
                </mxCell>
                <mxCell id="20" value="ESCRIBIR: &quot;¿Añadir nombre? (S/N)&quot;&lt;br&gt;LEER: nombre" style="shape=parallelogram;perimeter=parallelogramPerimeter;whiteSpace=wrap;html=1;" parent="1" vertex="1">
                    <mxGeometry x="290" y="750" width="320" height="60" as="geometry"/>
                </mxCell>
                <mxCell id="22" value="nombre = S" style="rhombus;whiteSpace=wrap;html=1;" parent="1" vertex="1">
                    <mxGeometry x="220" y="870" width="320" height="80" as="geometry"/>
                </mxCell>
                <mxCell id="23" value="precio = precio + 2.75" style="rounded=1;whiteSpace=wrap;html=1;" parent="1" vertex="1">
                    <mxGeometry x="80" y="960" width="155" height="60" as="geometry"/>
                </mxCell>
                <mxCell id="24" value="ESCRIBIR: &quot;Precio final = precio €&quot;" style="rounded=1;whiteSpace=wrap;html=1;" parent="1" vertex="1">
                    <mxGeometry x="530" y="960" width="230" height="60" as="geometry"/>
                </mxCell>
                <mxCell id="25" value="Fin" style="ellipse;whiteSpace=wrap;html=1;aspect=fixed;" parent="1" vertex="1">
                    <mxGeometry x="680" y="790" width="80" height="80" as="geometry"/>
                </mxCell>
                <mxCell id="26" value="" style="endArrow=block;rounded=1;html=1;" parent="1" source="2" target="3" edge="1">
                    <mxGeometry relative="1" as="geometry"/>
                </mxCell>
                <mxCell id="27" value="" style="endArrow=block;rounded=1;html=1;" parent="1" source="3" target="4" edge="1">
                    <mxGeometry relative="1" as="geometry"/>
                </mxCell>
                <mxCell id="30" value="Sí" style="endArrow=block;rounded=1;html=1;" parent="1" source="6" target="7" edge="1">
                    <mxGeometry relative="1" as="geometry"/>
                </mxCell>
                <mxCell id="31" value="No" style="endArrow=block;rounded=1;html=1;" parent="1" source="6" target="8" edge="1">
                    <mxGeometry relative="1" as="geometry"/>
                </mxCell>
                <mxCell id="32" value="Sí" style="endArrow=block;rounded=1;html=1;" parent="1" source="8" target="9" edge="1">
                    <mxGeometry relative="1" as="geometry"/>
                </mxCell>
                <mxCell id="33" value="No" style="endArrow=block;rounded=1;html=1;" parent="1" source="8" target="10" edge="1">
                    <mxGeometry relative="1" as="geometry"/>
                </mxCell>
                <mxCell id="34" value="Sí" style="endArrow=block;rounded=1;html=1;" parent="1" source="10" target="11" edge="1">
                    <mxGeometry relative="1" as="geometry"/>
                </mxCell>
                <mxCell id="35" value="" style="endArrow=block;rounded=1;html=1;entryX=1;entryY=0.5;entryDx=0;entryDy=0;" parent="1" source="11" target="13" edge="1">
                    <mxGeometry relative="1" as="geometry">
                        <mxPoint x="610" y="700" as="targetPoint"/>
                    </mxGeometry>
                </mxCell>
                <mxCell id="37" value="Sí" style="endArrow=block;rounded=1;html=1;" parent="1" source="13" target="14" edge="1">
                    <mxGeometry relative="1" as="geometry"/>
                </mxCell>
                <mxCell id="38" value="No" style="endArrow=block;rounded=1;html=1;" parent="1" source="13" target="15" edge="1">
                    <mxGeometry relative="1" as="geometry"/>
                </mxCell>
                <mxCell id="39" value="" style="endArrow=block;rounded=1;html=1;" parent="1" source="7" target="16" edge="1">
                    <mxGeometry relative="1" as="geometry"/>
                </mxCell>
                <mxCell id="40" value="" style="endArrow=block;rounded=1;html=1;" parent="1" source="9" target="16" edge="1">
                    <mxGeometry relative="1" as="geometry"/>
                </mxCell>
                <mxCell id="41" value="" style="endArrow=block;rounded=1;html=1;entryX=0.25;entryY=1;entryDx=0;entryDy=0;" parent="1" source="14" target="16" edge="1">
                    <mxGeometry relative="1" as="geometry"/>
                </mxCell>
                <mxCell id="42" value="" style="endArrow=block;rounded=1;html=1;entryX=1;entryY=0.5;entryDx=0;entryDy=0;" parent="1" source="15" target="16" edge="1">
                    <mxGeometry relative="1" as="geometry"/>
                </mxCell>
                <mxCell id="44" value="" style="endArrow=block;rounded=1;html=1;exitX=0.5;exitY=1;exitDx=0;exitDy=0;" parent="1" source="16" target="18" edge="1">
                    <mxGeometry relative="1" as="geometry">
                        <mxPoint x="205.26315789473688" y="580" as="sourcePoint"/>
                    </mxGeometry>
                </mxCell>
                <mxCell id="45" value="Sí" style="endArrow=block;rounded=1;html=1;" parent="1" source="18" target="19" edge="1">
                    <mxGeometry relative="1" as="geometry"/>
                </mxCell>
                <mxCell id="46" value="No" style="endArrow=block;rounded=1;html=1;" parent="1" source="18" target="20" edge="1">
                    <mxGeometry relative="1" as="geometry"/>
                </mxCell>
                <mxCell id="47" value="" style="endArrow=block;rounded=1;html=1;" parent="1" source="19" target="20" edge="1">
                    <mxGeometry relative="1" as="geometry"/>
                </mxCell>
                <mxCell id="50" value="Sí" style="endArrow=block;rounded=1;html=1;" parent="1" source="22" target="23" edge="1">
                    <mxGeometry relative="1" as="geometry"/>
                </mxCell>
                <mxCell id="51" value="No" style="endArrow=block;rounded=1;html=1;" parent="1" source="22" target="24" edge="1">
                    <mxGeometry relative="1" as="geometry"/>
                </mxCell>
                <mxCell id="52" value="" style="endArrow=block;rounded=1;html=1;" parent="1" source="23" target="24" edge="1">
                    <mxGeometry relative="1" as="geometry"/>
                </mxCell>
                <mxCell id="53" value="" style="endArrow=block;rounded=1;html=1;" parent="1" source="24" target="25" edge="1">
                    <mxGeometry relative="1" as="geometry"/>
                </mxCell>
            </root>
        </mxGraphModel>
    </diagram>
    <diagram id="1G0n2Ey7RP_y8c826G0h" name="Page-2">
        <mxGraphModel dx="1333" dy="799" grid="1" gridSize="10" guides="1" tooltips="1" connect="1" arrows="1" fold="1" page="1" pageScale="1" pageWidth="827" pageHeight="1169" math="0" shadow="0">
            <root>
                <mxCell id="0"/>
                <mxCell id="1" parent="0"/>
                <mxCell id="d6SVZHMi7q4TAjaWAM9r-1" value="Choco" style="html=1;dashed=0;whitespace=wrap;" vertex="1" parent="1">
                    <mxGeometry x="160" y="160" width="100" height="50" as="geometry"/>
                </mxCell>
                <mxCell id="d6SVZHMi7q4TAjaWAM9r-2" value="manzan" style="html=1;dashed=0;whitespace=wrap;" vertex="1" parent="1">
                    <mxGeometry x="330" y="170" width="100" height="50" as="geometry"/>
                </mxCell>
                <mxCell id="d6SVZHMi7q4TAjaWAM9r-3" value="fresa" style="html=1;dashed=0;whitespace=wrap;" vertex="1" parent="1">
                    <mxGeometry x="480" y="180" width="100" height="50" as="geometry"/>
                </mxCell>
                <mxCell id="d6SVZHMi7q4TAjaWAM9r-4" value="B or N&amp;nbsp;" style="html=1;dashed=0;whitespace=wrap;" vertex="1" parent="1">
                    <mxGeometry x="160" y="210" width="100" height="50" as="geometry"/>
                </mxCell>
                <mxCell id="d6SVZHMi7q4TAjaWAM9r-7" value="" style="edgeStyle=none;html=1;" edge="1" parent="1" source="d6SVZHMi7q4TAjaWAM9r-5" target="d6SVZHMi7q4TAjaWAM9r-6">
                    <mxGeometry relative="1" as="geometry"/>
                </mxCell>
                <mxCell id="d6SVZHMi7q4TAjaWAM9r-5" value="nata&lt;br&gt;S or N" style="html=1;dashed=0;whitespace=wrap;" vertex="1" parent="1">
                    <mxGeometry x="330" y="360" width="100" height="50" as="geometry"/>
                </mxCell>
                <mxCell id="d6SVZHMi7q4TAjaWAM9r-6" value="precio = precio&lt;br&gt;&amp;nbsp;+ 2.5" style="html=1;dashed=0;whitespace=wrap;" vertex="1" parent="1">
                    <mxGeometry x="150" y="430" width="100" height="50" as="geometry"/>
                </mxCell>
                <mxCell id="S62eVnJCyyI3yphLEkIG-4" style="edgeStyle=none;html=1;entryX=0.25;entryY=0;entryDx=0;entryDy=0;" edge="1" parent="1" source="d6SVZHMi7q4TAjaWAM9r-8" target="d6SVZHMi7q4TAjaWAM9r-5">
                    <mxGeometry relative="1" as="geometry"/>
                </mxCell>
                <mxCell id="d6SVZHMi7q4TAjaWAM9r-8" value="precio = 12" style="html=1;dashed=0;whitespace=wrap;" vertex="1" parent="1">
                    <mxGeometry x="160" y="260" width="100" height="50" as="geometry"/>
                </mxCell>
                <mxCell id="S62eVnJCyyI3yphLEkIG-2" value="" style="edgeStyle=none;html=1;" edge="1" parent="1" source="71mMr3wXGeyFtscAYfiT-1" target="d6SVZHMi7q4TAjaWAM9r-5">
                    <mxGeometry relative="1" as="geometry"/>
                </mxCell>
                <mxCell id="71mMr3wXGeyFtscAYfiT-1" value="precio = 12" style="html=1;dashed=0;whitespace=wrap;" vertex="1" parent="1">
                    <mxGeometry x="330" y="220" width="100" height="30" as="geometry"/>
                </mxCell>
                <mxCell id="S62eVnJCyyI3yphLEkIG-3" style="edgeStyle=none;html=1;entryX=0.75;entryY=0;entryDx=0;entryDy=0;" edge="1" parent="1" source="71mMr3wXGeyFtscAYfiT-2" target="d6SVZHMi7q4TAjaWAM9r-5">
                    <mxGeometry relative="1" as="geometry"/>
                </mxCell>
                <mxCell id="71mMr3wXGeyFtscAYfiT-2" value="precio = 12" style="html=1;dashed=0;whitespace=wrap;" vertex="1" parent="1">
                    <mxGeometry x="480" y="230" width="100" height="50" as="geometry"/>
                </mxCell>
                <mxCell id="71mMr3wXGeyFtscAYfiT-5" value="" style="edgeStyle=none;html=1;" edge="1" parent="1" source="71mMr3wXGeyFtscAYfiT-3" target="71mMr3wXGeyFtscAYfiT-4">
                    <mxGeometry relative="1" as="geometry"/>
                </mxCell>
                <mxCell id="71mMr3wXGeyFtscAYfiT-3" value="nombre&amp;nbsp;&lt;br&gt;S or N" style="html=1;dashed=0;whitespace=wrap;" vertex="1" parent="1">
                    <mxGeometry x="330" y="450" width="100" height="50" as="geometry"/>
                </mxCell>
                <mxCell id="71mMr3wXGeyFtscAYfiT-4" value="precio = precio&lt;br&gt;&amp;nbsp;+ 2.5" style="html=1;dashed=0;whitespace=wrap;" vertex="1" parent="1">
                    <mxGeometry x="180" y="530" width="100" height="50" as="geometry"/>
                </mxCell>
                <mxCell id="71mMr3wXGeyFtscAYfiT-7" value="" style="edgeStyle=none;html=1;" edge="1" parent="1" source="71mMr3wXGeyFtscAYfiT-6" target="d6SVZHMi7q4TAjaWAM9r-2">
                    <mxGeometry relative="1" as="geometry"/>
                </mxCell>
                <mxCell id="71mMr3wXGeyFtscAYfiT-8" style="edgeStyle=none;html=1;exitX=0;exitY=0.75;exitDx=0;exitDy=0;entryX=0.57;entryY=-0.06;entryDx=0;entryDy=0;entryPerimeter=0;" edge="1" parent="1" source="71mMr3wXGeyFtscAYfiT-6" target="d6SVZHMi7q4TAjaWAM9r-1">
                    <mxGeometry relative="1" as="geometry">
                        <Array as="points">
                            <mxPoint x="217" y="90"/>
                        </Array>
                    </mxGeometry>
                </mxCell>
                <mxCell id="71mMr3wXGeyFtscAYfiT-9" style="edgeStyle=none;html=1;exitX=1;exitY=0.75;exitDx=0;exitDy=0;entryX=0.5;entryY=0;entryDx=0;entryDy=0;" edge="1" parent="1" source="71mMr3wXGeyFtscAYfiT-6" target="d6SVZHMi7q4TAjaWAM9r-3">
                    <mxGeometry relative="1" as="geometry">
                        <Array as="points">
                            <mxPoint x="530" y="88"/>
                        </Array>
                    </mxGeometry>
                </mxCell>
                <mxCell id="71mMr3wXGeyFtscAYfiT-6" value="C or M or F" style="html=1;dashed=0;whitespace=wrap;" vertex="1" parent="1">
                    <mxGeometry x="330" y="50" width="100" height="50" as="geometry"/>
                </mxCell>
            </root>
        </mxGraphModel>
    </diagram>
</mxfile>